HIERARCHY
ROOT hip
{
	OFFSET 0.000000 0.000000 0.000000 
	CHANNELS 6 Xposition Yposition Zposition Xrotation Zrotation Yrotation
	JOINT abdomen
	{
		OFFSET 0.000000 3.402643 0.000000 
		CHANNELS 3 Xrotation Zrotation Yrotation
		JOINT chest
		{
			OFFSET 0.000000 8.438565 -0.680529 
			CHANNELS 3 Xrotation Zrotation Yrotation
			JOINT neck
			{
				OFFSET 0.000000 10.207942 -0.272212 
				CHANNELS 3 Xrotation Zrotation Yrotation
				JOINT head
				{
					OFFSET 0.000000 3.130431 0.000000 
					CHANNELS 3 Xrotation Zrotation Yrotation
					End Site
					{
						OFFSET 0.000000 3.130435 0.000000 
					}
				}
			}
			JOINT lCollar
			{
				OFFSET 3.470700 6.669187 -0.816635 
				CHANNELS 3 Yrotation Zrotation Xrotation
				JOINT lShldr
				{
					OFFSET 3.198488 0.000000 0.000000 
					CHANNELS 3 Zrotation Yrotation Xrotation
					JOINT lForeArm
					{
						OFFSET 10.139888 0.000000 0.000000 
						CHANNELS 3 Yrotation Zrotation Xrotation
						JOINT lHand
						{
							OFFSET 8.370511 0.000000 0.000000 
							CHANNELS 3 Zrotation Yrotation Xrotation
							End Site
							{
								OFFSET 4.083176 0.000000 0.000000 
							}
						}
					}
				}
			}
			JOINT rCollar
			{
				OFFSET -3.470700 6.669187 -0.816635 
				CHANNELS 3 Yrotation Zrotation Xrotation
				JOINT rShldr
				{
					OFFSET -3.198488 0.000000 0.000000 
					CHANNELS 3 Zrotation Yrotation Xrotation
					JOINT rForeArm
					{
						OFFSET -10.139888 0.000000 0.000000 
						CHANNELS 3 Yrotation Zrotation Xrotation
						JOINT rHand
						{
							OFFSET -8.370511 0.000000 0.000000 
							CHANNELS 3 Zrotation Yrotation Xrotation
							End Site
							{
								OFFSET -4.083176 0.000000 0.000000 
							}
						}
					}
				}
			}
		}
	}
	JOINT lThigh
	{
		OFFSET 5.308129 -1.633274 1.361059 
		CHANNELS 3 Xrotation Zrotation Yrotation
		JOINT lShin
		{
			OFFSET -2.041588 -20.007561 0.000000 
			CHANNELS 3 Xrotation Zrotation Yrotation
			JOINT lFoot
			{
				OFFSET 0.000000 -19.190928 -1.224953 
				CHANNELS 3 Xrotation Yrotation Zrotation
				End Site
				{
					OFFSET 0.000000 -2.449906 4.627600 
				}
			}
		}
	}
	JOINT rThigh
	{
		OFFSET -5.308129 -1.633274 1.361059 
		CHANNELS 3 Xrotation Zrotation Yrotation
		JOINT rShin
		{
			OFFSET 2.041588 -20.007561 0.000000 
			CHANNELS 3 Xrotation Zrotation Yrotation
			JOINT rFoot
			{
				OFFSET 0.000000 -19.190928 -1.224953 
				CHANNELS 3 Xrotation Yrotation Zrotation
				End Site
				{
					OFFSET 0.000000 -2.449906 4.627600 
				}
			}
		}
	}
}
MOTION
Frames: 9
Frame Time: 0.016667
-4.016195 52.953342 8.455997 -5.607161 9.897106 65.542778 26.612371 4.838697 -0.620025 5.929662 1.815523 -2.520181 -1.622072 -2.975670 0.242878 8.123048 -5.367170 -7.248931 -12.075845 -11.032558 -0.573774 -65.651558 10.184726 -24.962095 -21.577566 -5.000000 31.278034 -13.703770 -9.460767 -0.889787 22.834446 9.517181 -0.504501 66.153679 -13.920488 -30.477766 23.808033 5.000000 22.250032 6.485871 -26.649235 4.023185 6.249753 22.946600 -5.202341 14.839594 -4.696012 -1.422221 -5.016037 -2.143420 -8.287631 23.729145 -1.113503 -10.604523 -1.814220 3.386086 -0.027175 -8.159928 -13.070534 5.290490 
-3.911497 52.942181 8.364030 -5.812126 9.951502 65.245758 26.494432 4.941787 -0.591203 5.936941 1.844755 -2.588825 -1.553392 -2.898425 0.231192 8.205681 -5.388732 -7.063299 -12.154572 -11.091071 -0.576791 -65.550224 10.159920 -24.857119 -21.600456 -5.000000 31.360907 -13.580797 -9.470253 -0.997271 22.757906 9.692732 -0.513595 66.087837 -14.194928 -30.917063 23.624355 5.000000 22.571892 6.417925 -26.651955 4.097209 7.011443 23.114075 -4.550817 14.429730 -4.630270 -1.372645 -4.707200 -1.981843 -9.189717 23.883904 -1.250230 -10.245259 -1.781394 3.380653 -0.044514 -8.129947 -13.203014 5.317560 
-3.792410 52.931274 8.258009 -6.005837 9.996328 64.946671 26.348576 5.028234 -0.548521 5.935679 1.864256 -2.608346 -1.485090 -2.790752 0.224767 8.307206 -5.390641 -6.896195 -12.272162 -11.130079 -0.578802 -65.459518 10.143626 -24.758644 -21.617052 -5.000000 31.417818 -13.491917 -9.492042 -1.065596 22.661867 9.868287 -0.522686 66.045197 -14.466002 -31.337393 23.427294 5.000000 22.900837 6.344733 -26.643156 4.168499 7.743633 23.189688 -3.842444 13.990442 -4.559415 -1.320732 -4.651322 -1.757906 -10.066036 24.019487 -1.406538 -9.942848 -1.723648 3.411156 -0.022039 -8.147892 -13.261206 5.449988 
-3.658929 52.920616 8.137936 -6.195497 10.023754 64.649406 26.203344 5.123331 -0.501173 5.924958 1.873996 -2.627866 -1.406942 -2.663768 0.215422 8.428714 -5.372784 -6.759169 -12.409184 -11.159336 -0.580311 -65.390373 10.135873 -24.675299 -21.626617 -5.000000 31.441895 -13.417669 -9.507047 -1.104264 22.536560 10.043847 -0.531774 66.007942 -14.743349 -31.731745 23.237783 5.000000 23.208107 6.282893 -26.612888 4.216748 8.483684 23.233477 -3.055005 13.522638 -4.481316 -1.256650 -4.780348 -1.668947 -11.061789 24.126003 -1.563297 -9.662470 -1.635281 3.389062 -0.025126 -8.194831 -13.348274 5.576698 
-3.525451 52.909950 8.017862 -6.384983 10.049480 64.353439 26.038336 5.218776 -0.454898 5.914873 1.873985 -2.627861 -1.338130 -2.538244 0.196431 8.551443 -5.364584 -6.621230 -12.546208 -11.188592 -0.581819 -65.311966 10.140894 -24.587915 -21.625681 -5.000000 31.486683 -13.341809 -9.524226 -1.150728 22.411192 10.209654 -0.540353 65.967842 -15.022223 -32.137760 23.036934 5.000000 23.511623 6.220306 -26.592163 4.267792 9.215657 23.243084 -2.293338 13.043607 -4.403064 -1.211948 -4.868068 -1.483722 -11.993734 24.229570 -1.738748 -9.377822 -1.549854 3.386020 -0.019108 -8.233249 -13.433002 5.716295 
-3.372796 52.899620 7.871748 -6.569417 10.083414 64.028229 25.924843 5.303227 -0.378803 5.897249 1.844735 -2.598580 -1.318502 -2.382292 0.182704 8.716599 -5.307936 -6.473568 -12.683028 -11.198345 -0.582321 -65.269844 10.120646 -24.511526 -21.620600 -5.000000 31.523710 -13.268529 -9.565287 -1.173200 22.266031 10.346209 -0.549172 65.985924 -15.232520 -32.483242 22.867350 5.000000 23.790501 6.179164 -26.560389 4.289855 9.977312 23.155539 -1.412181 12.555731 -4.383544 -1.133596 -5.236635 -1.450674 -12.656533 24.328661 -1.963540 -9.137897 -1.431958 3.352712 -0.010166 -8.244880 -13.432409 5.866881 
-3.220144 52.889282 7.725634 -6.755329 10.118726 63.693493 25.801920 5.396665 -0.298234 5.889362 1.815483 -2.568990 -1.298915 -2.235995 0.170439 8.882948 -5.251120 -6.335636 -12.819951 -11.217850 -0.583327 -65.225647 10.105111 -24.422380 -21.598949 -5.000000 31.572454 -13.195211 -9.606304 -1.194150 22.120890 10.482760 -0.556255 66.000381 -15.443534 -32.843513 22.691450 5.000000 24.081284 6.122318 -26.528912 4.329288 10.719894 23.079094 -0.552594 12.086747 -4.363872 -1.066655 -5.573385 -1.450132 -13.343212 24.451283 -2.148580 -8.905563 -1.335928 3.317532 -0.031861 -8.295146 -13.507528 6.010460 
-3.064636 52.879211 7.572299 -6.934192 10.128097 63.369560 25.689436 5.495540 -0.206727 5.871986 1.776469 -2.529947 -1.289097 -2.089699 0.158174 9.029873 -5.184439 -6.207435 -12.968322 -11.215657 -0.592662 -65.205170 10.093617 -24.362741 -21.565317 -5.000000 31.622747 -13.123269 -9.654560 -1.205174 21.965807 10.599812 -0.562327 66.036041 -15.631742 -33.158131 22.538664 5.000000 24.340965 6.135253 -26.488348 4.309263 11.425910 22.968576 0.308542 11.605279 -4.343647 -1.018585 -5.955535 -1.480413 -13.845767 24.529724 -2.363842 -8.674525 -1.235500 3.251644 -0.033164 -8.287682 -13.527893 6.218220 
-2.906271 52.869408 7.411740 -7.100111 10.121971 63.041752 25.568161 5.597064 -0.093314 5.854879 1.717923 -2.481133 -1.289052 -1.943403 0.145580 9.167169 -5.107895 -6.088969 -13.114702 -11.205881 -0.592154 -65.222275 10.087804 -24.308716 -21.539631 -5.000000 31.663742 -13.044446 -9.707688 -1.195307 21.791103 10.707113 -0.567892 66.092079 -15.796696 -33.424721 22.412300 5.000000 24.591841 6.174740 -26.448191 4.271856 12.095334 22.803598 1.149476 11.153010 -4.351537 -0.975167 -6.369260 -1.557974 -14.127978 24.581745 -2.568875 -8.501945 -1.138273 3.184041 -0.005261 -8.335320 -13.580666 6.415167 
